<svg width="86" height="87" viewBox="0 0 86 87" fill="none" xmlns="http://www.w3.org/2000/svg">
<rect y="0.600098" width="86" height="86" rx="24" fill="#FF4444"/>
<g clip-path="url(#clip0)">
<path d="M20.3779 48.7107C19.9993 48.3509 19.4038 48.3554 19.0307 48.7209L13.4735 54.1646C13.1707 54.4612 13 54.8673 13 55.2912V55.2912C13 55.7151 13.1707 56.1212 13.4735 56.4179L19.0307 61.8615C19.4038 62.227 19.9993 62.2315 20.3779 61.8717V61.8717C20.7714 61.4978 20.7816 60.8737 20.4004 60.4872L16.2006 56.2287H69.7994L65.5734 60.4548C65.1728 60.8553 65.1889 61.5096 65.6088 61.8899V61.8899C65.9974 62.2419 66.5929 62.2302 66.9675 61.8633L72.5265 56.4179C72.8293 56.1212 73 55.7151 73 55.2912V55.2912C73 54.8673 72.8293 54.4612 72.5265 54.1646L66.9693 48.7209C66.5962 48.3554 66.0007 48.3509 65.6221 48.7107V48.7107C65.2286 49.0847 65.2184 49.7087 65.5996 50.0953L69.7994 54.3537H16.2006L20.4004 50.0953C20.7816 49.7087 20.7714 49.0847 20.3779 48.7107V48.7107Z" fill="white"/>
<path d="M32.3779 25.2449C31.9993 24.8851 31.4038 24.8896 31.0307 25.2551L25.4735 30.6988C25.1707 30.9954 25 31.4015 25 31.8254V31.8254C25 32.2493 25.1707 32.6554 25.4735 32.952L31.0307 38.3957C31.4038 38.7612 31.9993 38.7657 32.3779 38.4059V38.4059C32.7714 38.032 32.7816 37.4079 32.4004 37.0214L28.2006 32.7629H58.4998L54.2738 36.9889C53.8732 37.3895 53.8894 38.0437 54.3092 38.424V38.424C54.6978 38.776 55.2934 38.7644 55.6679 38.3975L61.227 32.952C61.5298 32.6554 61.7005 32.2493 61.7005 31.8254V31.8254C61.7005 31.4015 61.5298 30.9954 61.227 30.6988L55.6697 25.2551C55.2966 24.8896 54.7011 24.8851 54.3225 25.2449V25.2449C53.929 25.6188 53.9189 26.2429 54.3001 26.6294L58.4998 30.8879H28.2006L32.4004 26.6294C32.7816 26.2429 32.7714 25.6188 32.3779 25.2449V25.2449Z" fill="white"/>
</g>
<defs>
<clipPath id="clip0">
<rect x="13" y="25" width="60" height="36" fill="white"/>
</clipPath>
</defs>
</svg>
