<svg width="86" height="87" viewBox="0 0 86 87" fill="none" xmlns="http://www.w3.org/2000/svg">
<rect y="0.600098" width="86" height="86" rx="24" fill="#FF4444"/>
<path d="M43.636 36.6001C43.3283 36.6094 43.0325 36.7354 42.8148 36.9548L36.5715 43.0914L32.7257 39.3114C31.6488 38.2054 29.9093 39.9134 31.0335 40.9728L35.7266 45.5881C36.1928 46.0478 36.9502 46.0478 37.4188 45.5881L44.5069 38.6184C45.2879 37.8718 44.7128 36.6001 43.6384 36.6001H43.636ZM8.18333 45.9334H15.2833C15.9389 45.9334 16.4667 46.4538 16.4667 47.1001C16.4667 47.7464 15.9389 48.2668 15.2833 48.2668H8.18333C7.52777 48.2668 7 47.7464 7 47.1001C7 46.4538 7.52777 45.9334 8.18333 45.9334ZM8.18333 36.6001H15.2833C15.9389 36.6001 16.4667 37.1204 16.4667 37.7668C16.4667 38.4131 15.9389 38.9334 15.2833 38.9334H8.18333C7.52777 38.9334 7 38.4131 7 37.7668C7 37.1204 7.52777 36.6001 8.18333 36.6001ZM8.18333 27.2668H15.2833C15.9389 27.2668 16.4667 27.7871 16.4667 28.4334C16.4667 29.0798 15.9389 29.6001 15.2833 29.6001H8.18333C7.52777 29.6001 7 29.0798 7 28.4334C7 27.7871 7.52777 27.2668 8.18333 27.2668ZM64.9833 52.9334C61.7292 52.9334 59.0667 55.5584 59.0667 58.7668C59.0667 61.9751 61.7292 64.6001 64.9833 64.6001C68.2375 64.6001 70.9 61.9751 70.9 58.7668C70.9 55.5584 68.2375 52.9334 64.9833 52.9334ZM64.9833 55.2668C66.9571 55.2668 68.5333 56.8208 68.5333 58.7668C68.5333 60.7128 66.9571 62.2668 64.9833 62.2668C63.0095 62.2668 61.4333 60.7128 61.4333 58.7668C61.4333 56.8208 63.0095 55.2668 64.9833 55.2668ZM34.2167 52.9334C30.9625 52.9334 28.3 55.5584 28.3 58.7668C28.3 61.9751 30.9625 64.6001 34.2167 64.6001C37.4708 64.6001 40.1333 61.9751 40.1333 58.7668C40.1333 55.5584 37.4708 52.9334 34.2167 52.9334ZM34.2167 55.2668C36.1905 55.2668 37.7667 56.8208 37.7667 58.7668C37.7667 60.7128 36.1905 62.2668 34.2167 62.2668C32.2429 62.2668 30.6667 60.7128 30.6667 58.7668C30.6667 56.8208 32.2429 55.2668 34.2167 55.2668ZM22.3833 22.6001C20.4379 22.6001 18.8333 24.1821 18.8333 26.1001V51.7668C18.8333 53.6848 20.4379 55.2668 22.3833 55.2668H27.1167C28.7165 55.2901 28.7165 52.9101 27.1167 52.9334H22.3833C21.7065 52.9334 21.2 52.4341 21.2 51.7668V26.1001C21.2 25.4328 21.7065 24.9334 22.3833 24.9334H53.15C53.8269 24.9334 54.3333 25.4328 54.3333 26.1001V52.9334H41.3167C39.7547 52.9334 39.7831 55.2901 41.3167 55.2668H57.8833C59.4453 55.2668 59.4311 52.9334 57.8833 52.9334H56.7V31.9334H66.7039L75.6333 45.6908V51.7668C75.6333 52.4341 75.1269 52.9334 74.45 52.9334H72.0833C70.5355 52.9334 70.5355 55.2668 72.0833 55.2668H74.45C76.3954 55.2668 78 53.6848 78 51.7668V45.3501C78 45.1284 77.9361 44.9068 77.8154 44.7201L68.3487 30.1368C68.131 29.8031 67.7571 29.6001 67.35 29.6001H56.7V26.1001C56.7 24.1821 55.0954 22.6001 53.15 22.6001H22.3833Z" fill="white"/>
</svg>
