<svg width="86" height="87" viewBox="0 0 86 87" fill="none" xmlns="http://www.w3.org/2000/svg">
<rect y="0.600098" width="86" height="86" rx="24" fill="#FF4444"/>
<path d="M69.555 36.0811L57.6669 27.4871C57.34 27.2507 56.908 27.2176 56.5486 27.4011C56.1894 27.5848 55.9633 27.9542 55.9633 28.3577V34.8495L45.7789 27.4871C45.4521 27.2507 45.0201 27.2176 44.6609 27.4011C44.3015 27.5848 44.0756 27.9542 44.0756 28.3577V34.8495L33.891 27.4871C33.5641 27.2507 33.1322 27.2176 32.7727 27.4011C32.4135 27.5848 32.1874 27.9542 32.1874 28.3577V35.8773H29.9674L28.5549 15.3935C28.5159 14.8302 28.0478 14.3931 27.4832 14.3931H21.8528C21.2882 14.3931 20.8201 14.8301 20.781 15.3935L19.3684 35.8774H16.0742C15.4809 35.8774 15 36.3584 15 36.9517V62.7329C15 63.3261 15.4809 63.8071 16.0742 63.8071H68.9258C69.519 63.8071 70 63.3261 70 62.7329V36.9517C70 36.6067 69.8345 36.283 69.555 36.0811ZM21.6703 33.7289H23.9626C24.5557 33.7289 25.0369 33.2479 25.0369 32.6547C25.0369 32.0614 24.5557 31.5805 23.9626 31.5805H21.8184L22.8554 16.5416H26.4805L27.8138 35.8773H21.5221L21.6703 33.7289ZM32.1873 40.1744H26.2051C25.612 40.1744 25.1308 40.6555 25.1308 41.2486C25.1308 41.8418 25.612 42.3229 26.2051 42.3229H32.1873V44.4712H26.2051C25.612 44.4712 25.1308 44.9522 25.1308 45.5454C25.1308 46.1387 25.612 46.6196 26.2051 46.6196H32.1873V48.7681H29.3164C28.7234 48.7681 28.2422 49.2491 28.2422 49.8423C28.2422 50.4356 28.7234 50.9165 29.3164 50.9165H32.1873V53.0648H26.2051C25.612 53.0648 25.1308 53.5459 25.1308 54.1391C25.1308 54.7322 25.612 55.2133 26.2051 55.2133H32.1873V57.3615H26.2051C25.612 57.3615 25.1308 57.8425 25.1308 58.4357C25.1308 59.029 25.612 59.5099 26.2051 59.5099H32.1873V61.6586H17.1484V38.0258H20.3671C20.3684 38.0258 20.3698 38.026 20.3711 38.026H28.9646C28.9655 38.0261 28.9663 38.0261 28.9668 38.026C28.9683 38.026 28.9695 38.0258 28.971 38.0258H32.1873V40.1744ZM67.8516 61.6586H34.3357V36.9516V30.4597L44.5203 37.8221C44.8472 38.0585 45.2791 38.0919 45.6385 37.908C45.9978 37.7245 46.2239 37.355 46.2239 36.9516V30.4597L56.4082 37.822C56.7351 38.0585 57.1671 38.0916 57.5263 37.908C57.8857 37.7245 58.1116 37.355 58.1116 36.9516V30.4597L67.8516 37.5005V61.6586Z" fill="white"/>
<path d="M46.7966 44.4709H42.4995C41.9062 44.4709 41.4253 44.952 41.4253 45.5452V49.8418C41.4253 50.435 41.9062 50.916 42.4995 50.916H46.7966C47.3898 50.916 47.8708 50.435 47.8708 49.8418V45.5452C47.8708 44.9521 47.3898 44.4709 46.7966 44.4709ZM45.7224 48.7676H43.5737V46.6194H45.7224V48.7676Z" fill="white"/>
<path d="M54.3164 45.5452V49.8418C54.3164 50.435 54.7975 50.916 55.3906 50.916H59.6877C60.281 50.916 60.7619 50.435 60.7619 49.8418V45.5452C60.7619 44.952 60.281 44.4709 59.6877 44.4709H55.3906C54.7975 44.4709 54.3164 44.9521 54.3164 45.5452ZM56.4648 46.6194H58.6135V48.7676H56.4648V46.6194Z" fill="white"/>
<path d="M46.4451 57.3616H42.5C41.9067 57.3616 41.4258 57.8426 41.4258 58.4358C41.4258 59.0291 41.9067 59.51 42.5 59.51H46.4451C47.0381 59.51 47.5193 59.0291 47.5193 58.4358C47.5193 57.8426 47.0381 57.3616 46.4451 57.3616Z" fill="white"/>
</svg>
