<svg width="86" height="87" viewBox="0 0 86 87" fill="none" xmlns="http://www.w3.org/2000/svg">
<rect y="0.600098" width="86" height="86" rx="24" fill="#FF4444"/>
<g clip-path="url(#clip0)">
<path d="M26.8097 53.8188C27.18 54.1804 27.6077 54.4782 28.0753 54.7C28.2331 57.823 28.9046 60.8986 30.0628 63.8032C30.5518 64.9637 30.8067 66.2094 30.8128 67.4688V70.7875C30.8128 71.5335 31.1092 72.2488 31.6366 72.7763C32.164 73.3037 32.8794 73.6 33.6253 73.6H44.8753C45.6213 73.6 46.3366 73.3037 46.8641 72.7763C47.3915 72.2488 47.6878 71.5335 47.6878 70.7875C47.6892 69.1815 48.2381 67.6239 49.2441 66.3719L55.366 58.7407C55.4691 58.6282 55.5628 58.5063 55.6566 58.3938C55.7503 58.2813 55.8441 58.1969 55.9285 58.0844C56.0128 57.9719 56.1066 57.8313 56.191 57.7L56.4253 57.3625C56.5097 57.2219 56.566 57.0813 56.641 56.95C56.716 56.8188 56.7722 56.7063 56.8285 56.5844C56.8847 56.4625 56.9503 56.2844 57.0066 56.1344L57.1472 55.7688C57.1472 55.6094 57.2316 55.45 57.2691 55.2813C57.3066 55.1125 57.3347 55.0469 57.3628 54.925C57.391 54.8032 57.3628 54.5782 57.4285 54.4094C57.4941 54.2407 57.4285 54.175 57.4847 54.0532C57.541 53.9313 57.4847 53.6594 57.4847 53.4625C57.4847 53.2657 57.4847 53.275 57.4847 53.1719C57.4752 52.8767 57.447 52.5823 57.4003 52.2907L57.3253 51.8407L56.3878 45.7657C56.2831 45.1188 56.0939 44.4884 55.8253 43.8907C55.8104 43.8514 55.7916 43.8137 55.7691 43.7782C54.9314 42.0072 53.434 40.6344 51.5972 39.9532L48.6722 38.9125L51.9253 35.725L55.1878 32.35C55.2979 32.2436 55.4323 32.1657 55.5794 32.1232C55.7265 32.0808 55.8817 32.0749 56.0316 32.1063C58.329 32.5919 60.7249 32.1976 62.7456 31.0015C64.7663 29.8054 66.2646 27.8946 66.9441 25.6469C67.3145 24.4337 67.4326 23.1575 67.291 21.8969C67.251 21.5443 67.1117 21.2102 66.8893 20.9336C66.667 20.6569 66.3706 20.4491 66.0348 20.3342C65.699 20.2193 65.3375 20.2021 64.9923 20.2846C64.6471 20.367 64.3323 20.5458 64.0847 20.8L61.4785 23.4625C61.3913 23.5504 61.2876 23.6202 61.1734 23.6677C61.0591 23.7153 60.9366 23.7398 60.8128 23.7398C60.6891 23.7398 60.5665 23.7153 60.4523 23.6677C60.3381 23.6202 60.2344 23.5504 60.1472 23.4625L57.5222 20.8469C57.433 20.7571 57.363 20.6502 57.3163 20.5325C57.2695 20.4149 57.2471 20.2891 57.2503 20.1625C57.2496 20.0369 57.2741 19.9124 57.3224 19.7965C57.3708 19.6805 57.4419 19.5755 57.5316 19.4875L60.1472 16.825C60.3971 16.5747 60.5711 16.2587 60.6491 15.9137C60.7271 15.5686 60.7058 15.2085 60.5878 14.875C60.4684 14.5484 60.2605 14.2615 59.9873 14.0462C59.7141 13.831 59.3865 13.696 59.041 13.6563C57.7797 13.5242 56.5048 13.6453 55.291 14.0125C53.0539 14.7014 51.1555 16.2021 49.9689 18.2197C48.7822 20.2373 48.3933 22.6258 48.8785 24.9157C48.9136 25.0705 48.9088 25.2318 48.8645 25.3843C48.8202 25.5368 48.7379 25.6755 48.6253 25.7875L43.1691 31.1313C42.7366 30.5617 42.1502 30.1278 41.4792 29.8805C40.8081 29.6332 40.0804 29.583 39.3817 29.7357C38.6831 29.8885 38.0427 30.2378 37.536 30.7425C37.0294 31.2473 36.6776 31.8863 36.5222 32.5844C35.9643 32.4264 35.3774 32.3999 34.8076 32.507C34.2378 32.6141 33.7006 32.8519 33.2381 33.2017C32.7757 33.5515 32.4007 34.0037 32.1425 34.5229C31.8844 35.042 31.7501 35.614 31.7503 36.1938C31.7474 36.6389 31.8269 37.0807 31.9847 37.4969H31.7597C31.1737 37.5906 30.6183 37.8221 30.1391 38.1723C29.66 38.5225 29.2708 38.9814 29.0035 39.5113C28.7363 40.0412 28.5986 40.6269 28.6019 41.2204C28.6051 41.8139 28.7492 42.3981 29.0222 42.925C28.0926 43.2157 27.3125 43.8566 26.8471 44.7123C26.3816 45.5679 26.2674 46.571 26.5285 47.5094C25.7887 48.4051 25.4078 49.5436 25.4598 50.7042C25.5117 51.8647 25.9928 52.9647 26.8097 53.7907V53.8188ZM27.5878 49.2907L27.7566 49.4125C27.8469 49.4985 27.9441 49.5769 28.0472 49.6469C28.2312 49.7728 28.4256 49.8826 28.6285 49.975L32.3785 51.5875C32.5452 51.6608 32.7177 51.7204 32.8941 51.7657L32.1347 52.5157C32.0155 52.6294 31.8869 52.7329 31.7503 52.825L31.6191 52.9094L31.3097 53.0688L31.141 53.1438L30.7847 53.2469H30.5128H30.3628C30.0016 53.2676 29.6396 53.2231 29.2941 53.1157C28.8807 52.9841 28.5047 52.756 28.1972 52.45C27.7841 52.0388 27.509 51.5094 27.41 50.935C27.3109 50.3606 27.3927 49.7696 27.6441 49.2438L27.5878 49.2907ZM52.7878 42.85C53.6973 43.7032 54.2975 44.8343 54.4941 46.0657L55.5535 52.6282C55.5892 52.8484 55.6112 53.0708 55.6191 53.2938C55.6486 54.0674 55.5201 54.8388 55.2412 55.561C54.9623 56.2832 54.539 56.9408 53.9972 57.4938L53.9316 57.5594L47.7816 65.1625C46.4989 66.7558 45.8037 68.7421 45.8128 70.7875C45.8128 71.0362 45.7141 71.2746 45.5382 71.4505C45.3624 71.6263 45.124 71.725 44.8753 71.725H33.6253C33.3767 71.725 33.1382 71.6263 32.9624 71.4505C32.7866 71.2746 32.6878 71.0362 32.6878 70.7875V67.4688C32.6706 65.9585 32.3518 64.4668 31.7503 63.0813C30.741 60.5562 30.1275 57.8904 29.9316 55.1782H30.091C30.2858 55.1734 30.4801 55.1546 30.6722 55.1219C30.7503 55.1265 30.8285 55.1265 30.9066 55.1219C31.13 55.0813 31.3495 55.0217 31.5628 54.9438L31.7972 54.8782C32.0335 54.7795 32.2623 54.6636 32.4816 54.5313L32.6316 54.4563C32.8971 54.2839 33.1451 54.0861 33.3722 53.8657L38.6316 48.7C39.237 48.5353 39.7873 48.2116 40.2253 47.7625L40.2816 47.7157C40.4192 47.5741 40.5476 47.4238 40.666 47.2657C40.9718 46.8473 41.1829 46.3675 41.2847 45.8594C41.5776 45.8644 41.8701 45.8361 42.1566 45.775C42.8368 46.4408 43.6566 46.9468 44.5566 47.2563L46.7878 48.1094C47.0369 48.1965 47.2567 48.3516 47.4224 48.557C47.588 48.7624 47.693 49.01 47.7253 49.2719C47.7603 49.5933 47.687 49.9171 47.5172 50.1922C47.3474 50.4673 47.0908 50.6778 46.7878 50.7907C41.7628 52.6657 38.9222 55.8907 38.3503 60.3438C38.3125 60.5886 38.3732 60.8384 38.519 61.0387C38.6648 61.2389 38.8839 61.3733 39.1285 61.4125H39.2503C39.4792 61.4145 39.7009 61.3326 39.8736 61.1824C40.0463 61.0321 40.1581 60.8239 40.1878 60.5969C40.6941 56.8469 43.066 54.2032 47.4441 52.5625C48.1358 52.2954 48.7191 51.8061 49.1026 51.1715C49.4861 50.5368 49.648 49.7929 49.5628 49.0563C49.4877 48.4698 49.2555 47.9146 48.8908 47.4492C48.5261 46.9838 48.0425 46.6257 47.491 46.4125L45.2316 45.475C44.4174 45.1913 43.6972 44.6885 43.1503 44.0219C43.0304 43.8787 42.9238 43.725 42.8316 43.5625C42.7753 43.4782 42.7191 43.3938 42.6722 43.3094C42.5716 43.1348 42.4838 42.9531 42.4097 42.7657C42.3628 42.6438 42.316 42.5219 42.2785 42.3907C42.241 42.2594 42.2128 42.1563 42.1847 42.0438C42.1566 41.9313 42.1378 41.7625 42.1191 41.6219C42.1099 41.5002 42.1099 41.378 42.1191 41.2563C42.1144 41.2189 42.1144 41.1811 42.1191 41.1438C42.105 40.9722 42.105 40.7998 42.1191 40.6282C42.1145 40.5658 42.1145 40.5031 42.1191 40.4407C42.1139 40.3908 42.1139 40.3405 42.1191 40.2907C42.1561 40.0297 42.2157 39.7725 42.2972 39.5219C42.3764 39.2897 42.5435 39.0978 42.7626 38.9874C42.9817 38.877 43.2353 38.8568 43.4691 38.9313L50.8941 41.725C51.5918 41.9749 52.2348 42.3568 52.7878 42.85ZM49.9097 27.0813C50.2384 26.751 50.4799 26.3442 50.6124 25.8974C50.745 25.4507 50.7644 24.978 50.6691 24.5219C50.4223 23.3915 50.448 22.2186 50.7441 21.1C51.0584 19.859 51.6879 18.7202 52.5715 17.7938C53.4551 16.8675 54.563 16.185 55.7878 15.8125C56.7661 15.5065 57.798 15.4107 58.816 15.5313L56.2003 18.1938C55.9381 18.4551 55.7301 18.7656 55.5881 19.1074C55.4462 19.4493 55.3731 19.8158 55.3731 20.186C55.3731 20.5561 55.4462 20.9227 55.5881 21.2645C55.7301 21.6064 55.9381 21.9169 56.2003 22.1782L58.8535 24.85C59.3904 25.3619 60.1038 25.6474 60.8456 25.6474C61.5875 25.6474 62.3008 25.3619 62.8378 24.85L65.5003 22.1407C65.6104 23.1488 65.518 24.1688 65.2285 25.1407C64.8597 26.3835 64.1713 27.5077 63.2319 28.401C62.2925 29.2944 61.1351 29.9255 59.8753 30.2313C58.7479 30.5323 57.5647 30.558 56.4253 30.3063C55.9678 30.2093 55.4933 30.2279 55.0448 30.3605C54.5962 30.4931 54.1879 30.7355 53.8566 31.0657L47.2003 37.6282V37.5719C47.118 37.3259 47.0079 37.09 46.8722 36.8688L44.2191 32.7344L49.9097 27.0813ZM39.1847 31.7688C39.3928 31.637 39.6247 31.5475 39.8674 31.5054C40.11 31.4633 40.3586 31.4695 40.5989 31.5234C40.8391 31.5774 41.0664 31.6782 41.2678 31.82C41.4691 31.9618 41.6405 32.142 41.7722 32.35L42.2316 33.0719L45.0441 37.5157L44.1066 37.1688C43.7576 37.0471 43.3877 36.9968 43.0189 37.021C42.65 37.0451 42.2899 37.1432 41.9597 37.3094C41.869 37.357 41.7813 37.4102 41.6972 37.4688L38.3691 33.7657C38.2871 33.3921 38.3212 33.0024 38.467 32.6488C38.6128 32.2953 38.8632 31.9947 39.1847 31.7875V31.7688ZM34.1785 34.8532C34.3529 34.676 34.5609 34.5353 34.7902 34.4393C35.0196 34.3433 35.2658 34.2938 35.5144 34.2938C35.763 34.2938 36.0092 34.3433 36.2386 34.4393C36.4679 34.5353 36.6759 34.676 36.8503 34.8532L40.5253 38.95C40.4785 39.1 40.441 39.25 40.3941 39.4094C40.027 40.8589 40.1659 42.3903 40.7878 43.75L35.6785 38.9782L34.1785 37.4782C33.8292 37.1269 33.6332 36.6516 33.6332 36.1563C33.6332 35.6609 33.8292 35.1857 34.1785 34.8344V34.8532ZM30.8128 40.1313C31.104 39.7288 31.543 39.4584 32.0334 39.3793C32.5238 39.3002 33.0255 39.4189 33.4285 39.7094L34.366 40.4219L39.4753 45.175C39.4467 45.5132 39.3268 45.8372 39.1285 46.1125C39.0671 46.1969 38.9981 46.2754 38.9222 46.3469C38.6584 46.5823 38.3334 46.7383 37.9847 46.7969C37.6467 46.8655 37.2964 46.8396 36.9722 46.7219L31.9003 43.1594L31.1972 42.6438C30.8293 42.3498 30.5855 41.9281 30.5143 41.4626C30.4431 40.9971 30.5497 40.5218 30.8128 40.1313ZM28.3847 45.7563C28.5311 45.4209 28.7724 45.1357 29.0789 44.9358C29.3854 44.7359 29.7438 44.63 30.1097 44.6313C30.3674 44.6292 30.6227 44.6803 30.8597 44.7813H30.9347L35.6785 48.1094C35.6797 48.357 35.6319 48.6023 35.5378 48.8313C35.456 49.0649 35.3273 49.2794 35.1596 49.4616C34.992 49.6437 34.7889 49.7897 34.5628 49.8907C34.1036 50.0808 33.5877 50.0808 33.1285 49.8907L29.3785 48.2688C29.2692 48.2207 29.1655 48.161 29.0691 48.0907C28.8314 47.9012 28.6392 47.661 28.5066 47.3875L28.4503 47.2844C28.3396 47.0511 28.2783 46.7974 28.2703 46.5393C28.2622 46.2812 28.3076 46.0242 28.4035 45.7844L28.3847 45.7563Z" fill="white"/>
</g>
<defs>
<clipPath id="clip0">
<rect x="13" y="13.6001" width="60" height="60" fill="white"/>
</clipPath>
</defs>
</svg>
