<svg xmlns="http://www.w3.org/2000/svg" viewBox="0 0 205.88 58.84"><defs><style>.cls-1{fill:#14ddd3;}.cls-2{fill:none;}.cls-3{fill:red;}</style></defs><title>Ресурс 3</title><g id="Слой_2" data-name="Слой 2"><g id="Слой_1-2" data-name="Слой 1"><path class="cls-1" d="M87.32,18.56a10.34,10.34,0,0,1-1.16.27q.6-.07,1.2-.18Z"/><path d="M120.33,21c-.07.82-.29,1.63-.92,1.82s-.78.44-.78.44.16.4.13.26a0,0,0,0,1,0,0h-1.26c-.09,0,.14-.35,0-.4s-.38.13-.44.08c-.33-.25-.57-.58,0-.88l0,0a3.58,3.58,0,0,1,1.65-.28c.14,0,.47,0,.56-.07.41-.3.67-1.36.35-1.68-.08-.08-.5.05-.77,0a4.1,4.1,0,0,0-2.07.17,2.78,2.78,0,0,0-.65.53,13.88,13.88,0,0,1-3.7,2c-2.29.89-4,1.51-4.64,1.81a5.84,5.84,0,0,1-2.9.2c-1.06-.36-1.11-.93-3.17-1-2.5-.09-2.31-1-5.23-2.2-1.93-.8-4.27-.8-7.27,1.2s-9,8-15,8-12-6-4.5-16c-1.33,3.83-2.27,11,4.55,11.14,7.78.21,11-2.64,12.45-3.64,1.18-.78,6.5-6,13.5,0h.5a1.87,1.87,0,0,1,.21-2.35.3.3,0,0,1,.14.05c.1.05-.09.33-.14.44a1.23,1.23,0,0,0,.65,1.57,9.9,9.9,0,0,1,2.65,1.29c1.33,1.06,3.15.49,4,.08s3.3-1.11,4.47-1.58a10.4,10.4,0,0,0,3.87-2.43c.14-.13.32-.14.48-.29a1.38,1.38,0,0,0,.65.22h1.5l.38,0C120.29,19.66,120.43,19.71,120.33,21Z"/><path d="M101.75,14.5c2,0,2,1,5,1.5a2.37,2.37,0,0,1-1.92,1.2.82.82,0,0,1-.58-.2,2.28,2.28,0,0,0-1.38-.58.54.54,0,0,0-.62.58,4.83,4.83,0,0,1-.81,2.5h-.33c.33-.83.71-2.07-.39-2.14-.94-.06-.71.83-.54,1.33s-.4,1.39-1.73,1.39a4.05,4.05,0,0,1-.71-.08,15.73,15.73,0,0,1,.5-2.5C98.75,15.5,99.75,14.5,101.75,14.5Z"/><path d="M105.7,19.25a2.41,2.41,0,0,1-.67,1.38c-.58.59-.41,2.27-.91,1.27a1.84,1.84,0,0,1,0-1.52,1,1,0,0,1,.78-.62l.21-.36c-.53,0-1.43,0-1.84-.4a.68.68,0,0,1,0-1,3.84,3.84,0,0,1,2,.5,1.51,1.51,0,0,1,.41.51l0,.09A.35.35,0,0,1,105.7,19.25Z"/><path d="M118.77,19.5a24.14,24.14,0,0,0-3.68-8.82l-.11-.16a24.22,24.22,0,0,0-40.43.73c-2,3.62-1.88,5.19-1.88,5.91a6.19,6.19,0,0,0,2.39,4.95,5.76,5.76,0,0,0,3.36.93c2.18,0,5.18-.82,9.33-3a14.33,14.33,0,0,1-3.91.56c-2.94,0-5.86-1-5.59-4.56a12.26,12.26,0,0,1,3.57-7.44.12.12,0,0,1,0,0A17.4,17.4,0,0,1,86.26,5.3a20.37,20.37,0,0,1,22.57,2l.72.59.43.38a17.62,17.62,0,0,1,1.38,1.35l-.24-.23a22.51,22.51,0,0,1,5.53,10.33c.06.25.11.51.16.77a2.75,2.75,0,0,1,1.27-.29c.31,0,.47-.27.7-.19C118.74,19.71,118.82,19.76,118.77,19.5Z"/><path d="M119.2,23.15a2.22,2.22,0,0,1-.44.36,0,0,0,0,1,0,0h-1.5c0,.08,0,.16,0,.24,0-.1,0-.21,0-.31s0-.15,0-.22c0-.31,0-.61-.09-.91v0a3.58,3.58,0,0,1,1.65-.28c.14,0,.23.16.32.08C119.12,22.51,119.18,22.71,119.2,23.15Z"/><path d="M119.23,24.23a24.07,24.07,0,0,1-24.15,24.1,22.76,22.76,0,0,1-3.5-.14c.18,0,.37,0,.56,0-.28,0-.56,0-.83-.09s-.59-.08-.88-.13-.56-.11-.83-.18a13.22,13.22,0,0,1-2.5-.89,1.62,1.62,0,0,1,.25-.26A28.73,28.73,0,0,0,99.63,47l.32-.06a5,5,0,0,0,.5-.11,7.9,7.9,0,0,0,.81-.19l.31-.08.24-.07.21-.06h0a19.63,19.63,0,0,0,3.55-1.46A22.39,22.39,0,0,0,117.26,25c0-.43,0-.85,0-1.28h0c0-.08,0-.16,0-.24h1.5a0,0,0,0,0,0,0,2.22,2.22,0,0,0,.44-.36Q119.23,23.69,119.23,24.23Z"/><path class="cls-2" d="M86.26,5.3a21.24,21.24,0,0,0-4.39,3.21A17.4,17.4,0,0,1,86.26,5.3Z"/><path class="cls-2" d="M87.25,47a11.73,11.73,0,0,0,2.35.84,24.21,24.21,0,0,1-15-36.59A14.89,14.89,0,0,0,72.75,17c0,1,.26,3.68,2.31,5.11A21.59,21.59,0,0,0,74.87,25c0,11.7,8.6,21.28,19.52,22.18a28.1,28.1,0,0,1-6.64-.71A.48.48,0,0,0,87.25,47Z"/><path d="M100.5,18.42c0-.11-.15-.48,0-.62a.41.41,0,0,1,.53.06c.07.13,0,.25,0,.52S100.57,18.64,100.5,18.42Z"/><path class="cls-3" d="M102.06,46.39h0Z"/><path class="cls-3" d="M89,45.7a64,64,0,0,1,7.59-3.77,3.37,3.37,0,0,0,2.19-2,3.56,3.56,0,0,0-.73-3c-.92-1.37-4.92-3.64-5-3.66L92.64,33c.44,0,.91,0,1.37,0h.66a6.06,6.06,0,0,1,2.39.47,5.88,5.88,0,0,0,2,1.05l.18,0a2.26,2.26,0,0,0,.67.1,1.48,1.48,0,0,0,1.19-.5.48.48,0,0,0,.09-.11,1.11,1.11,0,0,0,.45-.31l.09-.11a1.35,1.35,0,0,0,.42-.3,1.28,1.28,0,0,0,.47-.18,1.12,1.12,0,0,0,.58-1c0-.7-.51-1.2-1.29-1.59-.42-.21-1.77-.64-1.77-.64a30.16,30.16,0,0,0,3.55.07l1.55,0c4-.14,5.33-1,6.73-2l.28-.19a29.58,29.58,0,0,0,3.47-2.93,22.82,22.82,0,0,1-3.94,12.61l-.08.12a19.5,19.5,0,0,1-12.39,7.91,25.12,25.12,0,0,1-4.34.51C90.32,46.31,89,45.7,89,45.7Z"/><path d="M118.78,23a18,18,0,0,0-2.09.33,13.46,13.46,0,0,0-1.34.67.52.52,0,0,0-.17.12A28.31,28.31,0,0,1,111.75,27c-1.5,1-2.5,1.86-6.5,2l-1.51,0c-4.23,0-4.56-.77-5.46-.77A4,4,0,0,0,96,29c-.94.74-1.73.8-.16,1.11.25,0,1.57.45,1.89.54a9.57,9.57,0,0,0,1.76.23,3.7,3.7,0,0,1,1.93.52c.89.58.93.75.73.87a.4.4,0,0,1-.22,0,1.35,1.35,0,0,1-.38-.07c.13.14,0,.32,0,.32a.35.35,0,0,1-.31.16l-.18,0c.08.12,0,.22-.07.34a.54.54,0,0,1-.49.07s.11.17,0,.36a.57.57,0,0,1-.44.15,1.33,1.33,0,0,1-.36,0,4.9,4.9,0,0,1-1.94-1c-.67-.49-.95-.59-2.95-.67H94a22.17,22.17,0,0,0-2.84.15c-1.08.17-1.46.22-1.45.43s1.35.71,2.92,1.58c1,.54,4,2.4,4.61,3.35s1.5,2.5-1,3.5a59.38,59.38,0,0,0-8,4c-1.5,1-4,2-5,3.5a5.81,5.81,0,0,0-1,5c-.1.19-.21.27-.33.27-.53,0-1.27-1.46-1.67-2.27a2.61,2.61,0,0,1,0-2.5c.27-.83-.51-1.68-.67-2.31-.16-.47.07-1.22,1.64-1.22l.53,0H82c1.85,0,3-2,3.27-3s1.42-2.79,3-3.07a11.17,11.17,0,0,1,1.52-.19h0c.23,0-.38-.25-1.54-.25,0,0-.59,0-1.43,0l-1.09,0c-.67,0-1.81-.46-2.48-.46a1.36,1.36,0,0,0-1,.44,18.21,18.21,0,0,1-6.5,4c-3,1-3.5,2-4,2.5s-1,.5-2,1a29.7,29.7,0,0,0-5.5,4c-1.5,1.5-4.6,3.82-5.81,5.15a9.15,9.15,0,0,0-1.73,3.09.14.14,0,0,1-.15.1,1,1,0,0,1-.74-1,6.37,6.37,0,0,1,.44-3.12c.44-1.11.93-1,.93-3.48,0-1.11.57-1.15,1.17-1.15a3,3,0,0,1,1.39.45c.17,0,.6-.2,1-1,.5-1,2.5-4,3.5-5.5a6.21,6.21,0,0,1,4-3c1.6-.4,3.33-2.17,4-3-1.33-.67-4.2-3.1-5-5.5,1.47,1.2,2,2.5,5,3a17.6,17.6,0,0,0,2.19.13A11.14,11.14,0,0,0,78.25,35a14.09,14.09,0,0,0,5-3c1.33-1.17,5-5,5-5a18.52,18.52,0,0,1,5-3.5,4.54,4.54,0,0,1,1.38-.26c1,0,1.93.53,2.62,2.26l1.83-.08h.23a5.86,5.86,0,0,1,1.06.08c2.11.45,2.43,1.5,2.88,1.5H107c1.93,0,2.12-1.44,4.76-2.51a36.09,36.09,0,0,0,4.37-2.16,2.49,2.49,0,0,1,1.25-.31h.8C118.74,22,118.5,22.85,118.78,23Z"/><path d="M5.51,40.16H0L4.93,18.8h10.7q3.46,0,5,2a5.9,5.9,0,0,1,.81,5.08A9.13,9.13,0,0,1,12.35,33H7.16Zm7.22-12a3.35,3.35,0,0,0,2-.61,2.72,2.72,0,0,0,1.1-1.66,1.75,1.75,0,0,0-.33-1.7,2.24,2.24,0,0,0-1.7-.61H9.33L8.27,28.19Z"/><path d="M30.87,40.16H25.36l3.82-16.56h-6l1.11-4.8H41.76l-1.11,4.8h-6Z"/><path d="M44.77,40.16H39.45L44.38,18.8h5.51L47,31.39,58.53,18.8h5.7L59.3,40.16H53.76l3-13.19Z"/><path d="M131.59,40.16h-5.51l3.82-16.56h-6L125,18.8h17.45l-1.11,4.8h-6Z"/><path d="M159.31,37.44a14,14,0,0,1-8.88,3.11q-4.93,0-7.46-3.11t-1.42-7.94a13.75,13.75,0,0,1,5.08-7.94,14.07,14.07,0,0,1,8.9-3.11q4.93,0,7.45,3.11t1.4,7.94A13.78,13.78,0,0,1,159.31,37.44Zm-7.76-1.76a6.78,6.78,0,0,0,4.6-1.76,8.17,8.17,0,0,0,2.62-4.42,5.41,5.41,0,0,0-.58-4.42,4.25,4.25,0,0,0-3.79-1.76,6.82,6.82,0,0,0-4.63,1.76,8.17,8.17,0,0,0-2.62,4.42,5.41,5.41,0,0,0,.58,4.42A4.28,4.28,0,0,0,151.55,35.68Z"/><path d="M170.21,40.16H164.7l4.93-21.36h10.7q3.46,0,5,2a5.9,5.9,0,0,1,.81,5.08A9.13,9.13,0,0,1,177.05,33h-5.19Zm7.22-12a3.35,3.35,0,0,0,2-.61,2.71,2.71,0,0,0,1.1-1.66,1.75,1.75,0,0,0-.33-1.7,2.24,2.24,0,0,0-1.7-.61H174L173,28.19Z"/><path d="M190.8,40.16h-5.51l4.93-21.36h15.66l-1.11,4.8H194.62Z"/><path class="cls-3" d="M114.82,18.62A20,20,0,0,0,110,10.39h0c-.33-.35-.69-.69-1.08-1L108.59,9l-.69-.57A18.89,18.89,0,0,0,87,6.63,16,16,0,0,0,83,9.45v0l-.14.13,0,0a10.81,10.81,0,0,0-3.13,6.5A2.35,2.35,0,0,0,80.26,18a4.33,4.33,0,0,0,2.9,1h.07a19.14,19.14,0,0,0,2.93-.21q.6-.07,1.2-.18c.3,0,.59-.1.89-.15a18.76,18.76,0,0,1,7.18,0,1.56,1.56,0,0,0,1.84-1.18v0c.63-2.53,2.09-3.76,4.47-3.76a5,5,0,0,1,2.57.67,7.88,7.88,0,0,0,2.59.84l1.34.23-.61,1.21a2.94,2.94,0,0,1-.79,1,1.47,1.47,0,0,0-.51,1.12c0,.15,0,.32,0,.52,0,1.5-.48,1.4-1,2.4-.71,1.41.4,2,1.4,1.54a20.26,20.26,0,0,1,5-1.5,6.44,6.44,0,0,0,2.52-1.22A1.55,1.55,0,0,0,114.82,18.62ZM97.41,7.1a19.7,19.7,0,0,0-11.06,2.1A17.14,17.14,0,0,1,110.62,14,19.21,19.21,0,0,0,97.41,7.1Z"/></g></g></svg>